<?xml version="1.0" standalone="no"?><!DOCTYPE svg PUBLIC "-//W3C//DTD SVG 1.1//EN" "http://www.w3.org/Graphics/SVG/1.1/DTD/svg11.dtd"><svg style="fill-rule:nonzero;clip-rule:evenodd;stroke-linejoin:round;stroke-miterlimit:1.41421;" xmlns="http://www.w3.org/2000/svg" name="narrow-bold" title="None" xml:space="preserve" viewBox="0.000 247.000 247.000 750.000" width="100%" xmlns:xlink="http://www.w3.org/1999/xlink" id="narrow-bold" enable-background="0.000 247.000 247.000 750.000"><path d="M84 413C24 315 0 246 0 151C0 85 21 0 114 0C193 0 215 90 219 242L208 242L223 0L247 0L240 310L205 310C205 128 175 47 126 47C88 47 66 62 66 112C66 178 112 252 163 336C222 434 247 504 247 598C247 664 225 750 133 750C53 750 32 659 28 507L37 507L18 750L0 750L9 439L53 439C53 621 81 703 131 703C164 703 181 687 181 637C181 571 135 497 84 413Z"/></svg>