<?xml version="1.0" standalone="no"?><!DOCTYPE svg PUBLIC "-//W3C//DTD SVG 1.1//EN" "http://www.w3.org/Graphics/SVG/1.1/DTD/svg11.dtd"><svg style="fill-rule:nonzero;clip-rule:evenodd;stroke-linejoin:round;stroke-miterlimit:1.41421;" xmlns="http://www.w3.org/2000/svg" name="narrow-thin" title="None" xml:space="preserve" viewBox="0.000 247.000 247.000 750.000" width="100%" xmlns:xlink="http://www.w3.org/1999/xlink" id="narrow-thin" enable-background="0.000 247.000 247.000 750.000"><path d="M102 392C38 319 5 269 5 153C5 88 27 0 112 0C196 0 219 93 225 232L224 232L226 0L233 0L233 296L224 296C211 115 191 11 112 11C36 11 22 89 22 148C22 239 70 273 143 351C221 433 247 490 247 597C247 663 226 750 134 750C49 750 16 657 12 506L14 506L8 750L0 750L3 438L13 438C21 636 49 739 134 739C215 739 231 671 231 597C231 514 188 490 102 392Z"/></svg>