<?xml version="1.0" standalone="no"?><!DOCTYPE svg PUBLIC "-//W3C//DTD SVG 1.1//EN" "http://www.w3.org/Graphics/SVG/1.1/DTD/svg11.dtd"><svg style="fill-rule:nonzero;clip-rule:evenodd;stroke-linejoin:round;stroke-miterlimit:1.41421;" xmlns="http://www.w3.org/2000/svg" name="wide-bold" title="None" xml:space="preserve" viewBox="0.000 830.000 830.000 750.000" width="100%" xmlns:xlink="http://www.w3.org/1999/xlink" id="wide-bold" enable-background="0.000 830.000 830.000 750.000"><path d="M377 476C89 455 15 342 15 224C15 101 108 0 358 0C581 0 691 76 746 207L722 178L754 0L796 0L785 222L704 222C640 99 529 47 404 47C250 47 185 83 185 141C185 195 219 229 480 244C749 259 830 360 830 483C830 624 720 750 454 750C203 750 122 614 66 493L100 506L44 750L0 750L6 438L97 438C159 605 284 686 461 686C589 686 675 649 675 587C675 528 633 496 377 476Z"/></svg>