<?xml version="1.0" standalone="no"?><!DOCTYPE svg PUBLIC "-//W3C//DTD SVG 1.1//EN" "http://www.w3.org/Graphics/SVG/1.1/DTD/svg11.dtd"><svg style="fill-rule:nonzero;clip-rule:evenodd;stroke-linejoin:round;stroke-miterlimit:1.41421;" xmlns="http://www.w3.org/2000/svg" name="wide-thin" title="None" xml:space="preserve" viewBox="0.000 830.000 830.000 750.000" width="100%" xmlns:xlink="http://www.w3.org/1999/xlink" id="wide-thin" enable-background="0.000 830.000 830.000 750.000"><path d="M438 378C131 353 48 291 48 178C48 66 180 0 388 0C665 0 742 115 758 251L729 165L780 0L795 0L769 260L740 260C726 86 604 18 388 18C159 18 67 94 67 178C67 272 151 304 462 325C740 344 830 407 830 551C830 668 719 750 464 750C210 750 51 631 26 464L66 555L19 750L0 750L15 427L37 427C57 612 214 733 463 733C712 733 811 661 811 551C811 429 713 400 438 378Z"/></svg>